<svg width="32" height="31" viewBox="0 0 32 31" fill="none" xmlns="http://www.w3.org/2000/svg">
<path d="M29.6278 11.7102L6.2082 0.458581C4.84543 -0.220397 3.28076 -0.1234 2.01893 0.604076C0.757098 1.38005 0 2.68951 0 4.14446V26.6477C0 28.1027 0.757098 29.4121 2.0694 30.1881C2.77603 30.6246 3.53312 30.8186 4.34069 30.8186C4.99684 30.8186 5.653 30.6731 6.25867 30.3821L29.6278 19.082C31.0915 18.3545 32 16.948 32 15.3961C32 13.8441 31.0915 12.3892 29.6278 11.7102ZM18.776 8.36383L14.2334 13.9896L4.29022 1.67104C4.69401 1.67104 5.04732 1.76804 5.40063 1.91353L18.776 8.36383ZM1.76656 26.6477V4.14446C1.76656 3.46548 2.0694 2.78651 2.62461 2.35002L13.123 15.3961L2.57413 28.4422C2.01893 28.0057 1.76656 27.3267 1.76656 26.6477ZM5.40063 28.8302C5.04732 29.0242 4.64353 29.0727 4.23975 29.0727L14.183 16.7541L18.7256 22.4284L5.40063 28.8302ZM28.8707 17.5785L20.3912 21.6524L15.3438 15.3961L20.3912 9.1398L28.8707 13.2137C29.7287 13.6502 30.2839 14.4746 30.2839 15.3961C30.2839 16.3176 29.7287 17.142 28.8707 17.5785Z" fill="#212B36"/>
</svg>
