<svg width="45" height="44" viewBox="0 0 45 44" fill="none" xmlns="http://www.w3.org/2000/svg">
<rect y="0.903809" width="44.075" height="42.4478" rx="10" fill="#212B36"/>
<path d="M28.384 22.2523C28.3728 20.4722 29.2337 19.1305 30.9723 18.1413C29.9999 16.8362 28.5289 16.1184 26.5897 15.9801C24.7537 15.8443 22.7449 16.9824 22.0093 16.9824C21.232 16.9824 19.4544 16.0271 18.0558 16.0271C15.1694 16.0688 12.1019 18.1831 12.1019 22.4846C12.1019 23.7558 12.3498 25.0687 12.8458 26.4208C13.5089 28.2009 15.8994 32.5625 18.3929 32.492C19.6968 32.4633 20.619 31.6254 22.3158 31.6254C23.9624 31.6254 24.815 32.492 26.2693 32.492C28.7852 32.4581 30.9472 28.4932 31.5769 26.7079C28.2029 25.2175 28.384 22.3437 28.384 22.2523ZM25.4558 14.2913C26.8683 12.72 26.7402 11.2896 26.6984 10.7754C25.4502 10.8433 24.007 11.5715 23.1851 12.4668C22.2796 13.4273 21.7474 14.615 21.8617 15.954C23.2101 16.0505 24.4416 15.4006 25.4558 14.2913Z" fill="white"/>
</svg>
